<?xml version="1.0" encoding="UTF-8"?>
<svg width="379.8" height="398.8" version="1.1" viewBox="0 0 94.95 99.7" xmlns="http://www.w3.org/2000/svg">
 <g transform="translate(-16.52 -14.15)" fill="#227e68">
  <path d="m103.4 50.31h-2.388v-14.83a21.34 21.34 0 0 0-42.67 0v14.83h-2.388a8.056 8.056 0 0 0-8.046 8.046v1.558h-21.57a1.75 1.75 0 0 0 0 3.5h21.57v4.666h-13.96a1.75 1.75 0 1 0 0 3.5h13.96v4.667h-21.57a1.75 1.75 0 0 0 0 3.5h21.57v4.667h-13.96a1.75 1.75 0 1 0 0 3.5h13.96v4.666h-21.57a1.75 1.75 0 0 0 0 3.5h21.57v4.667h-13.96a1.75 1.75 0 1 0 0 3.5h13.96v1.55a8.056 8.056 0 0 0 8.046 8.046h47.45a8.056 8.056 0 0 0 8.046-8.046v-47.44a8.056 8.056 0 0 0-8.046-8.046zm-41.56-14.83a17.84 17.84 0 0 1 35.67 0v14.83h-3.886v-14.83a13.95 13.95 0 0 0-27.9 0v14.83h-3.884zm7.386 14.83v-14.83a10.45 10.45 0 0 1 20.9 0v14.83zm38.72 55.49a4.551 4.551 0 0 1-4.546 4.546h-47.45a4.551 4.551 0 0 1-4.546-4.546v-9.717h8.684a1.75 1.75 0 0 0 0-3.5h-8.684v-12.83h8.684a1.75 1.75 0 0 0 0-3.5h-8.684v-12.83h8.684a1.75 1.75 0 0 0 0-3.5h-8.684v-1.558a4.552 4.552 0 0 1 4.546-4.546h47.45a4.552 4.552 0 0 1 4.546 4.546z"/>
  <path d="m85.5 68.66a9.114 9.114 0 0 0-11.65 14.02v8.214a5.858 5.858 0 0 0 11.72 0v-8.213a9.116 9.116 0 0 0-0.066-14.02zm-2.664 11.7a1.749 1.749 0 0 0-0.773 1.452v9.082a2.358 2.358 0 0 1-4.716 0v-9.086a1.751 1.751 0 0 0-0.773-1.452 5.616 5.616 0 0 1 1.987-10.16 6.079 6.079 0 0 1 1.154-0.112 5.535 5.535 0 0 1 3.558 1.28 5.615 5.615 0 0 1-0.437 9z"/>
  <path d="m18.27 71.58h8.1a1.75 1.75 0 1 0 0-3.5h-8.1a1.75 1.75 0 1 0 0 3.5z"/>
  <path d="m18.27 87.92h8.1a1.75 1.75 0 1 0 0-3.5h-8.1a1.75 1.75 0 1 0 0 3.5z"/>
  <path d="m26.37 100.8h-8.1a1.75 1.75 0 1 0 0 3.5h8.1a1.75 1.75 0 0 0 0-3.5z"/>
 </g>
</svg>
