<?xml version="1.0" encoding="UTF-8"?>
<svg width="464" height="384" version="1.1" viewBox="0 0 464 384" xmlns="http://www.w3.org/2000/svg">
 <g transform="translate(-24 -64)" fill="#227e68">
  <path d="m48 192h358.1l-39.03 39.03a24 24 0 0 0 33.94 33.94l80-80a24 24 0 0 0 0-33.94l-80-80a24 24 0 0 0-33.94 33.94l39.03 39.03h-358.1a24 24 0 0 0 0 48z"/>
  <path d="m464 320h-358.1l39.03-39.03a24 24 0 0 0-33.94-33.94l-80 80a24 24 0 0 0 0 33.94l80 80a24 24 0 0 0 33.94-33.94l-39.03-39.03h358.1a24 24 0 0 0 0-48z"/>
 </g>
</svg>
