<?xml version="1.0" encoding="UTF-8"?>
<svg width="578.3" height="489" version="1.1" viewBox="0 0 578.3 489" xml:space="preserve" xmlns="http://www.w3.org/2000/svg"><g fill="#227e68">
<ellipse cx="189" cy="340.9" rx="42.13" ry="56.3"/><ellipse cx="390" cy="340.9" rx="42.12" ry="56.3"/><path d="m533.3 115.7c0.532-26.52-5.294-53.33-10.02-79.73-1.628-9.088-4.927-17.87-8.177-26.49-2.448-6.487-9.676-10.62-16.33-9.198-4.309 0.918-8.183 1.812-11.94 3.048-39.33 12.94-75.74 31.86-110.7 53.84-4.7 2.95-11.54 4.015-17.21 3.599-13.57-0.992-27-4.37-40.57-5.013-33.58-1.591-67.09-0.569-100.4 5.251-4.626 0.808-10.72 0.012-14.56-2.472-38.15-24.68-77.83-45.81-122.5-57.67-6.702-1.781-13.6-0.838-15.29 1.824-1.035 1.628-1.971 3.317-2.485 5.128-4.823 16.95-10.54 33.81-13.34 51.11-3.341 20.66-6.554 41.93-4.969 62.56 0.998 12.97-2.583 20.94-9.669 30.04-23.77 30.54-34.47 65.64-35.13 104.1-0.563 32.92 3.794 65 13.82 96.47 15.36 48.22 45.01 84.41 89.65 108 36.71 19.36 76.71 26.82 117.6 28.26 36.89 1.292 73.86 0.196 110.8 0.404 37.02 0.208 73.53-3.091 108.9-14.63 35.45-11.55 66.12-30.18 89.92-59.49 34.38-42.33 45.08-92.19 47.28-145 1.684-40.36-6.542-78.33-30.18-111.3-9.584-13.4-14.96-24.9-14.6-42.62zm-71.27 309.3c-15.88 13.73-35.29 20.23-55.16 24.98-38.99 9.315-78.69 11.64-118.5 9.896-39.37 1.707-78.29-0.747-116.6-9.762-28.26-6.646-54.05-17.82-72.03-42.08-28.61-38.6-35.92-112.1 11.35-152.1 12.06-10.22 25.5-16.71 41.39-17.72 17.53-1.12 35.07-3.305 52.6-3.097 44.2 0.526 88.38 2.724 132.6 3.054 20.18 0.146 40.51-4.56 60.54-3.348 18.21 1.102 37.35 4.455 53.88 11.78 27.55 12.22 42.37 36.98 46.85 65.99 6.67 43.13-2.131 82.39-36.88 112.4z"/>















</g></svg>
