<?xml version="1.0" encoding="UTF-8"?>
<svg width="512" height="414.3" enable-background="new 0 0 512 512" version="1.1" viewBox="0 0 512 414.3" xmlns="http://www.w3.org/2000/svg">
 <path d="m352.2 414.3c-52.96 0-82.32-28.31-82.79-79.76-1.729-1.009-6.488-2.417-13.39-2.417-6.897 0-11.66 1.408-13.39 2.417-0.473 51.45-29.83 79.76-82.79 79.76-4.142 0-7.5-3.358-7.5-7.5s3.358-7.5 7.5-7.5c44.98 0 67.8-22.22 67.8-66.03 0-14.27-27.83-29.67-72.8-29.67-23.45 0-62.8 3.205-62.8 24.67 0 24.83 7.319 56.7 42.19 67.48 3.958 1.224 6.174 5.423 4.951 9.38-1.224 3.957-5.426 6.173-9.38 4.951-31.97-9.882-50.44-36.13-52.56-74.31h-9.984c-4.142 0-7.5-3.358-7.5-7.5s3.358-7.5 7.5-7.5h10.62c3.761-16.06 21.38-32.17 76.96-32.17 41.48 0 73.68 12.49 84.16 31.13 4.53-1.693 10.28-2.608 17.01-2.608s12.48 0.915 17.01 2.608c10.48-18.64 42.69-31.13 84.16-31.13 55.57 0 73.19 16.11 76.96 32.17h10.62c4.143 0 7.5 3.358 7.5 7.5s-3.357 7.5-7.5 7.5h-9.987c-2.768 49.34-33.2 78.53-82.59 78.53zm5-110.7c-44.96 0-72.8 15.4-72.8 29.67 0 43.81 22.81 66.03 67.8 66.03 43.72 0 67.8-25.22 67.8-71.03 0-21.46-39.34-24.67-62.8-24.67zm-101.2-27.01c-60.85 0-124.8-5.209-175.4-14.29-22.88-4.105-42.08-8.85-55.51-13.72-17.35-6.29-25.09-12.7-25.09-20.8 0-11.16 13.38-16.87 23.44-20.2 9.468-3.131 22.14-5.979 37.66-8.463 4.085-0.652 7.936 2.129 8.591 6.22 0.655 4.09-2.13 7.937-6.22 8.591-34.48 5.521-44.78 11.37-47.63 13.65 4.864 3.908 24.04 12.69 74.38 21.16 49.22 8.282 108.1 12.84 165.8 12.84s116.6-4.561 165.8-12.84c50.44-8.487 69.59-17.29 74.4-21.19-2.51-2.074-11.06-7.007-38.7-12.09-16.21-2.982-31.84-4.668-36.38-5.127-10.07 2.636-71.31 17.58-165.1 17.58-100.7 0-163.8-17.22-166.5-17.95-3.587-0.996-5.901-4.473-5.434-8.167 0.062-0.49 6.307-49.61 15.48-98.09 5.42-28.63 10.8-51.51 15.99-67.98 8.001-25.4 15.3-35.76 25.21-35.76 35.94 0 70.39 10.41 93.19 17.3 9.639 2.912 18.74 5.663 22.05 5.663 3.305 0 12.41-2.751 22.05-5.663 9.881-2.985 22.18-6.7 35.76-9.896 4.033-0.946 8.07 1.55 9.019 5.583 0.948 4.032-1.552 8.07-5.584 9.018-13.13 3.089-25.18 6.729-34.86 9.653-12.56 3.796-20.87 6.304-26.39 6.304s-13.82-2.508-26.39-6.304c-21.81-6.588-54.68-16.52-88.16-16.66-2.143 1.657-12.79 13.79-28.14 96.85-6.621 35.82-11.56 71.01-13.48 85.25 18.34 4.272 75.48 15.85 156.2 15.85 80.69 0 137.8-11.58 156.2-15.85-1.12-8.332-3.276-23.84-6.196-42.43-18.72 3.84-72.62 13.28-150 13.28-56.76 0-101.2-5.146-128.5-9.462-4.091-0.647-6.884-4.488-6.237-8.579 0.647-4.092 4.491-6.88 8.579-6.237 26.78 4.233 70.41 9.278 126.2 9.278 76.18 0 130.2-9.57 147.6-13.12-1.497-9.048-3.138-18.52-4.896-28.03-15.35-83.02-25.99-95.14-28.13-96.8-8.632 0.035-17.85 0.732-27.4 2.073-4.085 0.577-7.894-2.282-8.47-6.385-0.575-4.102 2.283-7.894 6.386-8.47 10.5-1.473 20.65-2.22 30.17-2.22 9.902 0 17.21 10.36 25.21 35.76 5.191 16.48 10.57 39.35 15.99 67.98 7.313 38.64 12.76 77.67 14.71 92.19 7.816 0.874 22.21 2.68 36.78 5.524 33.7 6.578 48.08 14.46 48.08 26.36 0 8.092-7.737 14.5-25.09 20.8-13.44 4.87-32.63 9.615-55.51 13.72-50.62 9.082-114.5 14.29-175.4 14.29z" fill="#227e68"/>
</svg>
