<?xml version="1.0" encoding="UTF-8"?>
<svg width="341.3" height="334.5" enable-background="new 0 0 300 300" version="1.1" viewBox="0 0 200 196" xmlns="http://www.w3.org/2000/svg">
 <g fill="#227e68">
  <path d="m136 92c2.211 0 4-1.789 4-4v-15.56l3.465 2.836c1.477 1.211 3.594 1.211 5.07 0l3.465-2.836v15.56c0 2.211 1.789 4 4 4s4-1.789 4-4v-24c0-1.547-0.891-2.953-2.289-3.613-1.395-0.672-3.051-0.465-4.246 0.52l-7.465 6.109-7.465-6.109c-1.199-0.984-2.859-1.191-4.246-0.52-1.398 0.66-2.289 2.066-2.289 3.613v24c0 2.211 1.789 4 4 4z"/>
  <path d="m51.7 92c4.578 0 8.305-3.727 8.305-8.305v-3.391c0-4.578-3.727-8.305-8.305-8.305h-7.391c-0.172 0-0.305-0.133-0.305-0.305v-3.391c0-0.172 0.133-0.305 0.305-0.305h11.7c2.211 0 4-1.789 4-4s-1.789-4-4-4h-11.7c-4.578 0-8.305 3.727-8.305 8.305v3.391c0 4.578 3.727 8.305 8.305 8.305h7.391c0.172 0 0.305 0.133 0.305 0.305v3.391c0 0.172-0.133 0.305-0.305 0.305h-11.7c-2.211 0-4 1.789-4 4s1.789 4 4 4z"/>
  <path d="m104 92c2.211 0 4-1.789 4-4v-8h8v8c0 2.211 1.789 4 4 4s4-1.789 4-4v-18.25c0-5.375-4.371-9.746-9.746-9.746h-4.508c-5.375 0-9.746 4.371-9.746 9.746v18.25c0 2.211 1.789 4 4 4zm5.746-24h4.508c0.961 0 1.746 0.785 1.746 1.746v2.254h-8v-2.254c0-0.961 0.785-1.746 1.746-1.746z"/>
  <path d="m72 92c2.211 0 4-1.789 4-4v-8h6c5.516 0 10-4.484 10-10s-4.484-10-10-10h-10c-2.211 0-4 1.789-4 4v24c0 2.211 1.789 4 4 4zm4-24h6c1.102 0 2 0.898 2 2s-0.898 2-2 2h-6z"/>
  <path d="m199.6 82.38c-0.057-0.129-0.165-0.228-0.235-0.35-0.211-0.364-0.446-0.701-0.756-0.98-0.045-0.041-0.061-0.1-0.107-0.139l-24-19.79c-0.01-8e-3 -0.022-9e-3 -0.032-0.017-6.947-34.8-37.71-61.1-74.52-61.1-37.44 0-68.57 27.24-74.8 62.94-0.126 0.075-0.27 0.098-0.389 0.188l-23.2 17.66c-0.109 0.082-0.215 0.168-0.316 0.262-0.105 0.098-0.207 0.199-0.301 0.309-0.613 0.699-0.992 1.613-0.996 2.617v8e-3 8e-3 8e-3 108c0 2.211 1.789 4 4 4h192c2.211 0 4-1.789 4-4v-108c0-0.579-0.134-1.121-0.354-1.617zm-191.6 9.541 23.92 17.65c7.218 14.58 18.93 26.51 33.37 33.96l-57.29 40.72zm65.85 55.34c8.169 3.008 16.95 4.734 26.15 4.734 9.086 0 17.77-1.686 25.85-4.623l57.54 40.62h-166.9zm60.61-3.613c15.4-7.874 27.75-20.82 34.86-36.64l22.68-15.45v92.71zm54.89-59.96-15.68 10.68c1.473-5.897 2.341-12.03 2.341-18.38 0-1.165-0.123-2.299-0.175-3.452zm-89.34-75.7c17.31 0 33.08 6.556 45.1 17.25l-26.36 26.36c-1.562 1.562-1.562 4.094 0 5.656 0.781 0.781 1.805 1.172 2.828 1.172s2.047-0.391 2.828-1.172l26.36-26.36c10.69 12.02 17.25 27.79 17.25 45.1 0 37.5-30.5 68-68 68-17.31 0-33.08-6.556-45.1-17.25l38.78-38.78c1.562-1.562 1.562-4.094 0-5.656s-4.094-1.562-5.656 0l-38.78 38.78c-10.69-12.02-17.25-27.79-17.25-45.1 0-37.5 30.5-68 68-68zm-73.3 87.78-16.04-11.83 13.45-10.24c-0.023 0.766-0.116 1.515-0.116 2.287 0 6.852 0.994 13.46 2.702 19.78z"/>
 </g>
</svg>
