<?xml version="1.0" encoding="UTF-8"?>
<svg width="659.9" height="700.1" enable-background="new 0 0 24 24" version="1.1" viewBox="0 0 30.93 32.82" xmlns="http://www.w3.org/2000/svg">
 <g fill="#227e68">
  <path d="m22.15 14.48c-0.5125 1.4e-4 -1.025 0.1952-1.414 0.5847-0.291 0.291-0.4732 0.6502-0.547 1.027-0.7442-0.3573-1.666-0.2282-2.282 0.3874-0.2848 0.2848-0.4731 0.6401-0.5486 1.026-0.7438-0.3558-1.665-0.2262-2.279 0.3886-0.2525 0.2518-0.4292 0.5594-0.5186 0.8954l-3.017-3.017c-0.779-0.779-2.049-0.779-2.828 0-0.78 0.78-0.78 2.049 0 2.829l7.499 7.5-3.371 0.8077c-0.01 3e-3 -0.01994 5e-3 -0.02994 9e-3 -0.341 0.083-0.657 0.262-0.917 0.522-0.779 0.779-0.779 2.049 0 2.828 0.275 0.275 0.614 0.461 0.979 0.539 7e-3 2e-3 0.01498 3e-3 0.02298 4e-3l8.397 1.925c0.338 0.077 0.679 0.115 1.016 0.115 1.178 0 2.314-0.463 3.171-1.319l4.092-4.092c1.755-1.755 1.755-4.609 0-6.364l-6.01-6.011c-0.39-0.39-0.9027-0.5848-1.415-0.5847z"/>
  <path d="m15.75 24h-13.5c-1.24 0-2.25-1.009-2.25-2.25v-10.5c0-1.241 1.01-2.25 2.25-2.25h13.5c1.24 0 2.25 1.009 2.25 2.25v10.5c0 1.241-1.01 2.25-2.25 2.25zm-13.5-13.5c-0.413 0-0.75 0.336-0.75 0.75v10.5c0 0.414 0.337 0.75 0.75 0.75h13.5c0.413 0 0.75-0.336 0.75-0.75v-10.5c0-0.414-0.337-0.75-0.75-0.75z"/>
  <path d="m14.25 10.5c-0.414 0-0.75-0.336-0.75-0.75v-3.75c0-2.481-2.019-4.5-4.5-4.5s-4.5 2.019-4.5 4.5v3.75c0 0.414-0.336 0.75-0.75 0.75s-0.75-0.336-0.75-0.75v-3.75c0-3.309 2.691-6 6-6s6 2.691 6 6v3.75c0 0.414-0.336 0.75-0.75 0.75z"/>
 </g>
</svg>
