<?xml version="1.0" encoding="UTF-8"?>
<svg width="254.5" height="397" version="1.1" viewBox="0 0 63.63 99.24" xmlns="http://www.w3.org/2000/svg">
 <g transform="translate(-47.82 -14.6)" fill="#227e68">
  <path d="m103.4 50.31h-2.388v-14.83c-0.2512-11.6-9.729-20.88-21.34-20.88s-21.08 9.275-21.34 20.88v14.83h-2.388c-4.441 0.0055-8.04 3.605-8.046 8.046 0 0-0.1992 45.41 0 47.44 0.0055 4.441 3.605 8.04 8.046 8.046h47.45c4.441-6e-3 8.04-3.605 8.046-8.046v-47.44c-6e-3 -4.441-3.605-8.04-8.046-8.046zm-41.56-14.83c0.2294-9.686 8.147-17.42 17.84-17.42s17.61 7.732 17.84 17.42v14.83h-3.886v-14.83c0-7.704-6.246-13.95-13.95-13.95s-13.95 6.246-13.95 13.95v14.83h-3.884zm7.386 14.83v-14.83c0-5.771 4.679-10.45 10.45-10.45s10.45 4.679 10.45 10.45v14.83zm38.72 55.49c-3e-3 2.51-2.036 4.543-4.546 4.546h-47.45c-2.51-3e-3 -4.543-2.036-4.546-4.546v-47.44c0.0033-2.509 2.037-4.543 4.546-4.546h47.45c2.509 0.0033 4.543 2.037 4.546 4.546z"/>
  <path d="m85.5 68.66a9.114 9.114 0 0 0-11.65 14.02v8.214a5.86 5.86 0 0 0 11.72 0v-8.213a9.116 9.116 0 0 0-0.066-14.02zm-2.664 11.7a1.749 1.749 0 0 0-0.773 1.452v9.082a2.358 2.358 0 0 1-4.716 0v-9.086a1.751 1.751 0 0 0-0.773-1.452 5.616 5.616 0 0 1 1.987-10.16 6.079 6.079 0 0 1 1.154-0.112 5.535 5.535 0 0 1 3.558 1.28 5.615 5.615 0 0 1-0.437 9z"/>
 </g>
</svg>
