<?xml version="1.0" encoding="UTF-8"?>
<svg width="432.8pt" height="512pt" version="1.1" viewBox="-40 0 432.8 512" xmlns="http://www.w3.org/2000/svg">
 <path d="m342.9 157.4 20.07-20.07c7.801-7.801 7.801-20.45 0-28.25-7.801-7.801-20.45-7.801-28.25 0l-20.07 20.07c-33.68-28.06-74.61-45.02-118.3-48.98v-40.2h19.31c11.03 0 19.97-8.945 19.97-19.98s-8.941-19.97-19.97-19.97h-78.57c-11.03 0-19.97 8.941-19.97 19.97s8.941 19.98 19.97 19.98h19.31v40.2c-109.3 9.938-196.4 101.7-196.4 215.5 0 119.6 96.78 216.4 216.4 216.4 119.6 0 216.4-96.78 216.4-216.4 0-51.09-17.59-99.46-49.9-138.2zm-166.5 314.7c-97.29 0-176.4-79.15-176.4-176.4 0-97.29 79.15-176.4 176.4-176.4 97.29 0 176.4 79.15 176.4 176.4 0 97.29-79.15 176.4-176.4 176.4zm92.57-269c7.801 7.801 7.801 20.45 0 28.25l-78.44 78.44c-7.801 7.801-20.45 7.801-28.25 0-7.801-7.801-7.801-20.45 0-28.25l78.44-78.44c7.801-7.801 20.45-7.801 28.25 0z" fill="#227e68"/>
</svg>
