<?xml version="1.0" encoding="UTF-8"?>
<svg width="64" height="64" version="1.1" viewBox="0 0 16.93 16.93" xmlns="http://www.w3.org/2000/svg">
 <g transform="translate(-.0004519 -.1461)">
  <g transform="matrix(.2646 0 0 .2646 -6.695 -6.871)" stroke-width=".976" style="shape-inside:url(#rect10109);white-space:pre" aria-label="Masker@">
   <path d="m25.3 47.78v23.83c0 0.7816 0.6481 1.43 1.43 1.43 0.7816 0 1.43-0.6481 1.43-1.43v-18.72l9.283 15.17c0.2287 0.3812 0.7816 0.6862 1.22 0.6862s0.9912-0.305 1.22-0.6862l9.322-15.19v18.81c0 0.7816 0.6481 1.43 1.43 1.43 0.7816 0 1.43-0.6481 1.43-1.43v-23.89c0-0.7816-0.6481-1.43-1.43-1.43-0.4384 0-0.9912 0.305-1.22 0.6862l-10.75 17.52-10.64-17.4c-0.2669-0.4384-0.8006-0.8197-1.296-0.8197-0.8387 0-1.43 0.7244-1.43 1.43z" fill="#fff" style="shape-inside:url(#rect10109);white-space:pre"/>
   <path d="m72.27 68.3c2.237 0 4.107-0.9353 5.49-2.155 1.139 1.464 2.745 2.298 4.738 2.298 4.494 0 6.893-4.189 6.893-8.418 0-0.4677-0.0203-0.976-0.0813-1.505-0.9353-8.235-8.133-15.35-16.35-15.35-9.862 0-16.8 8.296-16.8 16.57 0 8.804 6.771 16.63 16.16 16.63 1.932 0 3.884-0.366 5.856-1.118 0.976-0.366 1.545-1.179 1.545-2.237 0-1.078-0.549-1.891-1.627-1.891-0.4067 0-0.8337 0.122-1.322 0.2847-1.545 0.5287-3.009 0.8133-4.453 0.8133-7.117 0-12.12-5.795-12.12-12.55 0-6.364 5.368-12.28 12.75-12.28 6.303 0 12.32 5.693 12.32 12.65 0 2.135-0.8947 4.27-2.786 4.27-0.9963 0-1.891-0.6913-1.891-1.403v-9.963c0-1.118-0.915-2.033-2.033-2.033-0.8743 0-1.627 0.5693-1.911 1.383-1.362-0.8743-2.989-1.342-4.799-1.342-4.372 0-8.255 4.087-8.255 8.499 0 4.921 3.741 8.845 8.662 8.845zm-0.1627-13.24c2.501 0 4.473 2.054 4.494 4.616-0.0407 2.542-1.932 4.534-4.494 4.534-2.643 0-4.433-2.155-4.433-4.595 0-2.46 2.013-4.555 4.433-4.555z" fill="#62bea8"/>
  </g>
 </g>
</svg>
