<?xml version="1.0" encoding="UTF-8"?>
<svg width="43.83mm" height="9.037mm" version="1.1" viewBox="0 0 43.83 9.037" xmlns="http://www.w3.org/2000/svg">
 <g transform="translate(-.000452 -.1461)">
  <g transform="matrix(.2646 0 0 .2646 -6.695 -6.871)" style="shape-inside:url(#rect10109);white-space:pre" aria-label="Masker@">
   <path d="m25.3 27.99v24.41c0 0.8008 0.6641 1.465 1.465 1.465s1.465-0.6641 1.465-1.465v-19.18l9.512 15.55c0.2344 0.3906 0.8008 0.7031 1.25 0.7031 0.4492 0 1.016-0.3125 1.25-0.7031l9.551-15.57v19.28c0 0.8008 0.6641 1.465 1.465 1.465 0.8008 0 1.465-0.6641 1.465-1.465v-24.47c0-0.8008-0.6641-1.465-1.465-1.465-0.4492 0-1.016 0.3125-1.25 0.7031l-11.02 17.95-10.9-17.83c-0.2734-0.4492-0.8203-0.8398-1.328-0.8398-0.8594 0-1.465 0.7422-1.465 1.465z" style="shape-inside:url(#rect10109);white-space:pre"/>
   <path d="m66.57 33.55c-5.469 0-9.551 4.902-9.551 10.23 0 5.352 4.102 10.18 9.453 10.18 2.598 0 5.059-1.797 6.777-3.672v2.227c0 0.7617 0.6055 1.367 1.367 1.367 0.7617 0 1.367-0.6055 1.367-1.367v-17.66c0-0.7617-0.6055-1.367-1.367-1.367-0.7617 0-1.191 0.625-1.191 1.367l-0.1758 2.461c-1.66-1.797-3.887-3.77-6.68-3.77zm6.777 10.12c0 3.809-3.145 7.363-6.875 7.363-3.711 0-6.523-3.496-6.523-7.246 0-3.789 2.832-7.305 6.641-7.305 3.75 0 6.758 3.418 6.758 7.188z" style="shape-inside:url(#rect10109);white-space:pre"/>
   <path d="m89.93 33.46c-4.082 0-8.945 1.816-8.945 6.172 0 3.906 3.887 4.863 7.227 5.254 2.48 0.293 7.754 0.1172 7.754 2.832 0 2.598-3.281 3.457-5.957 3.457-3.125 0-5.547-0.957-6.66-3.105-0.2148-0.4297-0.7812-0.7812-1.27-0.7812-0.7812 0-1.406 0.625-1.406 1.406 0 0.1953 0.05859 0.4883 0.1562 0.6641 1.562 3.047 5.117 4.648 9.18 4.648 4.316 0 8.77-1.895 8.77-6.289 0-4.062-3.926-4.922-7.48-5.293-2.383-0.2539-7.5-0.2344-7.5-2.793 0-2.441 3.691-3.34 6.113-3.34 2.539 0 4.551 0.957 5.488 2.715 0.2148 0.4297 0.7812 0.7617 1.25 0.7617 0.7812 0 1.426-0.625 1.426-1.406 0-0.1953-0.07813-0.5078-0.1758-0.6836-1.387-2.598-4.492-4.219-7.969-4.219z" style="shape-inside:url(#rect10109);white-space:pre"/>
   <path d="m103.5 27.95v24.57c-0.0195 0.7617 0.6055 1.387 1.367 1.387s1.367-0.6055 1.367-1.367v-5.977l2.285-2.227 6.719 9.082c0.2344 0.3125 0.7031 0.5469 1.094 0.5469 0.7617 0 1.367-0.6055 1.367-1.367 0-0.2539-0.1367-0.6445-0.293-0.8398l-6.973-9.16 6.699-6.953c0.2148-0.2148 0.3906-0.6445 0.3906-0.957 0-0.7617-0.6055-1.367-1.367-1.367-0.3516 0-0.7812 0.1953-0.9961 0.4297-2.969 3.145-6.094 6.172-8.926 9.453v-15.23c0.0195-0.7812-0.6055-1.387-1.367-1.387s-1.367 0.625-1.367 1.367z" style="shape-inside:url(#rect10109);white-space:pre"/>
   <path d="m130.7 53.96c2.949 0 5.82-1.328 7.695-3.633 0.1953-0.2344 0.3516-0.6641 0.3516-0.957 0-0.8008-0.6641-1.465-1.465-1.465-0.3906 0-0.918 0.2539-1.152 0.5664-1.289 1.582-3.418 2.559-5.469 2.559-3.633 0-6.406-2.812-7.012-6.055h14.22c1.152 0 1.504-0.9766 1.504-2.188 0-5.078-4.199-9.16-9.16-9.16-5.391 0-9.629 4.648-9.629 10 0 5.625 4.453 10.33 10.12 10.33zm5.684-11.88h-12.7c0.6445-2.988 3.203-5.527 6.543-5.527 3.203 0 5.781 2.48 6.152 5.527z" style="shape-inside:url(#rect10109);white-space:pre"/>
   <path d="m155.2 35.43c0-1.465-1.66-1.895-3.652-1.895-2.129 0-4.355 2.07-4.883 3.848l-0.1758-2.148c0-0.9766-0.5273-1.621-1.289-1.621-0.7422 0-1.504 0.6641-1.504 1.621v17.32c0 0.8203 0.4883 1.484 1.465 1.484 0.9766 0 1.465-0.6641 1.465-1.484v-10.64c0-2.832 1.191-5.625 5.02-5.625 1.016 0 1.621 0.5664 2.441 0.5664 0.5469 0 1.113-0.7227 1.113-1.426z" style="shape-inside:url(#rect10109);white-space:pre"/>
   <path d="m173.4 52.41c2.292 0 4.208-0.9583 5.625-2.208 1.167 1.5 2.812 2.354 4.854 2.354 4.604 0 7.062-4.292 7.062-8.625 0-0.4792-0.0208-1-0.0833-1.542-0.9583-8.438-8.333-15.73-16.75-15.73-10.1 0-17.21 8.5-17.21 16.98 0 9.021 6.938 17.04 16.56 17.04 1.979 0 3.979-0.375 6-1.146 1-0.375 1.583-1.208 1.583-2.292 0-1.104-0.5625-1.938-1.667-1.938-0.4167 0-0.8542 0.125-1.354 0.2917-1.583 0.5417-3.083 0.8333-4.563 0.8333-7.292 0-12.42-5.938-12.42-12.85 0-6.521 5.5-12.58 13.06-12.58 6.458 0 12.63 5.833 12.63 12.96 0 2.188-0.9167 4.375-2.854 4.375-1.021 0-1.938-0.7083-1.938-1.438v-10.21c0-1.146-0.9375-2.083-2.083-2.083-0.8958 0-1.667 0.5833-1.958 1.417-1.396-0.8958-3.063-1.375-4.917-1.375-4.479 0-8.458 4.188-8.458 8.708 0 5.042 3.833 9.063 8.875 9.063zm-0.1667-13.56c2.562 0 4.583 2.104 4.604 4.729-0.0417 2.604-1.979 4.646-4.604 4.646-2.708 0-4.542-2.208-4.542-4.708 0-2.521 2.062-4.667 4.542-4.667z" fill="#62bea8"/>
  </g>
 </g>
</svg>
